# Blender v2.78 (sub 0) OBJ File: ''
# www.blender.org
mtllib circle.mtl
o Sphere
v 0.000000 0.965926 -0.258819
v 0.000000 0.707107 -0.707107
v 0.000000 0.258819 -0.965926
v 0.000000 0.000000 -1.000000
v 0.000000 -0.707107 -0.707107
v 0.000000 -0.866025 -0.500000
v -0.000000 1.000000 -0.000000
v 0.129409 0.965926 -0.224144
v 0.250000 0.866025 -0.433013
v 0.353553 0.707107 -0.612372
v 0.433013 0.500000 -0.750000
v 0.482963 0.258819 -0.836516
v 0.500000 0.000000 -0.866025
v 0.482963 -0.258819 -0.836516
v 0.433013 -0.500000 -0.750000
v 0.353553 -0.707107 -0.612373
v 0.250000 -0.866025 -0.433013
v 0.129409 -0.965926 -0.224144
v 0.224144 0.965926 -0.129410
v 0.433012 0.866025 -0.250000
v 0.612372 0.707107 -0.353554
v 0.750000 0.500000 -0.433013
v 0.836516 0.258819 -0.482963
v 0.866025 0.000000 -0.500000
v 0.836516 -0.258819 -0.482963
v 0.750000 -0.500000 -0.433013
v 0.612372 -0.707107 -0.353554
v 0.433013 -0.866025 -0.250000
v 0.224144 -0.965926 -0.129410
v 0.258819 0.965926 -0.000000
v 0.500000 0.866025 -0.000000
v 0.707106 0.707107 -0.000000
v 0.866025 0.500000 -0.000000
v 0.965925 0.258819 -0.000000
v 1.000000 0.000000 -0.000000
v 0.965926 -0.258819 -0.000000
v 0.866025 -0.500000 -0.000000
v 0.707107 -0.707107 -0.000000
v 0.500000 -0.866025 -0.000000
v 0.258819 -0.965926 -0.000000
v 0.224144 0.965926 0.129409
v 0.433012 0.866025 0.249999
v 0.612372 0.707107 0.353553
v 0.750000 0.500000 0.433012
v 0.836516 0.258819 0.482962
v 0.866025 0.000000 0.499999
v 0.836516 -0.258819 0.482962
v 0.750000 -0.500000 0.433012
v 0.612372 -0.707107 0.353553
v 0.433012 -0.866025 0.250000
v 0.224144 -0.965926 0.129409
v 0.000000 -1.000000 -0.000000
v 0.129409 0.965926 0.224143
v 0.250000 0.866025 0.433012
v 0.353553 0.707107 0.612372
v 0.433012 0.500000 0.749999
v 0.482963 0.258819 0.836516
v 0.500000 0.000000 0.866025
v 0.482963 -0.258819 0.836516
v 0.433013 -0.500000 0.749999
v 0.353553 -0.707107 0.612372
v 0.250000 -0.866025 0.433012
v 0.129409 -0.965926 0.224143
v 0.000000 0.965926 0.258818
v -0.000000 0.866025 0.499999
v -0.000000 0.707107 0.707106
v -0.000000 0.500000 0.866025
v -0.000000 0.258819 0.965925
v -0.000000 0.000000 0.999999
v -0.000000 -0.258819 0.965925
v -0.000000 -0.500000 0.866025
v -0.000000 -0.707107 0.707106
v -0.000000 -0.866025 0.499999
v 0.000000 -0.965926 0.258819
v -0.129409 0.965926 0.224143
v -0.250000 0.866025 0.433012
v -0.353553 0.707107 0.612372
v -0.433012 0.500000 0.749999
v -0.482963 0.258819 0.836516
v -0.500000 0.000000 0.866025
v -0.482963 -0.258819 0.836516
v -0.433013 -0.500000 0.749999
v -0.353553 -0.707107 0.612372
v -0.250000 -0.866025 0.433012
v -0.129409 -0.965926 0.224143
v -0.224143 0.965926 0.129409
v -0.433012 0.866025 0.249999
v -0.612372 0.707107 0.353553
v -0.750000 0.500000 0.433012
v -0.836516 0.258819 0.482962
v -0.866025 0.000000 0.499999
v -0.836516 -0.258819 0.482962
v -0.750000 -0.500000 0.433012
v -0.612372 -0.707107 0.353553
v -0.433013 -0.866025 0.249999
v -0.224144 -0.965926 0.129409
v -0.258819 0.965926 -0.000000
v -0.499999 0.866025 -0.000000
v -0.707106 0.707107 -0.000001
v -0.866025 0.500000 -0.000000
v -0.965925 0.258819 -0.000000
v -0.999999 0.000000 -0.000001
v -0.965925 -0.258819 -0.000000
v -0.866025 -0.500000 -0.000000
v -0.707107 -0.707107 -0.000000
v -0.500000 -0.866025 -0.000000
v -0.258819 -0.965926 -0.000000
v -0.224143 0.965926 -0.129410
v -0.433012 0.866025 -0.250000
v -0.612372 0.707107 -0.353554
v -0.749999 0.500000 -0.433013
v -0.836516 0.258819 -0.482963
v -0.866025 0.000000 -0.500000
v -0.836516 -0.258819 -0.482963
v -0.750000 -0.500000 -0.433013
v -0.612372 -0.707107 -0.353554
v -0.433012 -0.866025 -0.250000
v -0.224144 -0.965926 -0.129410
v -0.129409 0.965926 -0.224144
v -0.250000 0.866025 -0.433013
v -0.353553 0.707107 -0.612372
v -0.433012 0.500000 -0.750000
v -0.482963 0.258819 -0.836516
v -0.500000 0.000000 -0.866025
v -0.482963 -0.258819 -0.836516
v -0.433012 -0.500000 -0.750000
v -0.353553 -0.707107 -0.612373
v -0.250000 -0.866025 -0.433013
v -0.129409 -0.965926 -0.224144
v 0.000000 0.866025 -0.500000
v 0.000000 0.500000 -0.866025
v 0.000000 -0.258819 -0.965926
v 0.000000 -0.500000 -0.866025
v 0.000000 -0.965926 -0.258819
vn 0.2079 -0.5955 -0.7760
vn 0.2568 0.1262 -0.9582
vn 0.1610 0.7830 -0.6008
vn 0.1610 -0.7830 -0.6008
vn 0.2568 -0.1262 -0.9582
vn 0.2079 0.5955 -0.7760
vn 0.1020 -0.9191 -0.3807
vn 0.0350 0.9908 -0.1304
vn 0.2403 -0.3715 -0.8968
vn 0.2403 0.3715 -0.8968
vn 0.0350 -0.9908 -0.1304
vn 0.1020 0.9191 -0.3807
vn 0.5681 0.5955 -0.5681
vn 0.2787 -0.9191 -0.2787
vn 0.0955 0.9908 -0.0955
vn 0.6565 -0.3715 -0.6565
vn 0.6565 0.3715 -0.6565
vn 0.0955 -0.9908 -0.0955
vn 0.2787 0.9191 -0.2787
vn 0.5681 -0.5955 -0.5681
vn 0.7015 0.1262 -0.7015
vn 0.4398 0.7830 -0.4398
vn 0.4398 -0.7830 -0.4398
vn 0.7015 -0.1262 -0.7015
vn 0.9582 0.1262 -0.2568
vn 0.6008 0.7830 -0.1610
vn 0.6008 -0.7830 -0.1610
vn 0.9582 -0.1262 -0.2568
vn 0.7760 0.5955 -0.2079
vn 0.3807 -0.9191 -0.1020
vn 0.1304 0.9908 -0.0350
vn 0.8968 -0.3715 -0.2403
vn 0.8968 0.3715 -0.2403
vn 0.1304 -0.9908 -0.0350
vn 0.3807 0.9191 -0.1020
vn 0.7760 -0.5955 -0.2079
vn 0.8968 0.3715 0.2403
vn 0.1304 -0.9908 0.0350
vn 0.3807 0.9191 0.1020
vn 0.7760 -0.5955 0.2079
vn 0.9582 0.1262 0.2568
vn 0.6008 0.7830 0.1610
vn 0.6008 -0.7830 0.1610
vn 0.9582 -0.1262 0.2568
vn 0.7760 0.5955 0.2079
vn 0.3807 -0.9191 0.1020
vn 0.1304 0.9908 0.0350
vn 0.8968 -0.3715 0.2403
vn 0.7015 -0.1262 0.7015
vn 0.5681 0.5955 0.5681
vn 0.2787 -0.9191 0.2787
vn 0.0955 0.9908 0.0955
vn 0.6565 -0.3715 0.6565
vn 0.6565 0.3715 0.6565
vn 0.0955 -0.9908 0.0955
vn 0.2787 0.9191 0.2787
vn 0.5681 -0.5955 0.5681
vn 0.7015 0.1262 0.7015
vn 0.4398 0.7830 0.4398
vn 0.4398 -0.7830 0.4398
vn 0.2568 0.1262 0.9582
vn 0.1610 0.7830 0.6008
vn 0.1610 -0.7830 0.6008
vn 0.2568 -0.1262 0.9582
vn 0.2079 0.5955 0.7760
vn 0.1020 -0.9191 0.3807
vn 0.0350 0.9908 0.1304
vn 0.2403 -0.3715 0.8968
vn 0.2403 0.3715 0.8968
vn 0.0350 -0.9908 0.1304
vn 0.1020 0.9191 0.3807
vn 0.2079 -0.5955 0.7760
vn -0.2403 -0.3715 0.8968
vn -0.2403 0.3715 0.8968
vn -0.0350 -0.9908 0.1304
vn -0.1020 0.9191 0.3807
vn -0.2079 -0.5955 0.7760
vn -0.2568 0.1262 0.9582
vn -0.1610 0.7830 0.6008
vn -0.1610 -0.7830 0.6008
vn -0.2568 -0.1262 0.9582
vn -0.2079 0.5955 0.7760
vn -0.1020 -0.9191 0.3807
vn -0.0350 0.9908 0.1304
vn -0.7015 -0.1262 0.7015
vn -0.5681 0.5955 0.5681
vn -0.2787 -0.9191 0.2787
vn -0.0955 0.9908 0.0955
vn -0.6565 -0.3715 0.6565
vn -0.6565 0.3715 0.6565
vn -0.0955 -0.9908 0.0955
vn -0.2787 0.9191 0.2787
vn -0.5681 -0.5955 0.5681
vn -0.7015 0.1262 0.7015
vn -0.4398 0.7830 0.4398
vn -0.4398 -0.7830 0.4398
vn -0.7760 -0.5955 0.2079
vn -0.9582 0.1261 0.2568
vn -0.6008 0.7830 0.1610
vn -0.6008 -0.7830 0.1610
vn -0.9582 -0.1262 0.2568
vn -0.7760 0.5955 0.2079
vn -0.3807 -0.9191 0.1020
vn -0.1304 0.9908 0.0350
vn -0.8968 -0.3715 0.2403
vn -0.8968 0.3715 0.2403
vn -0.1304 -0.9908 0.0350
vn -0.3807 0.9191 0.1020
vn -0.1304 0.9908 -0.0350
vn -0.8968 -0.3715 -0.2403
vn -0.8968 0.3715 -0.2403
vn -0.1304 -0.9908 -0.0350
vn -0.3807 0.9191 -0.1020
vn -0.7760 -0.5955 -0.2079
vn -0.9582 0.1262 -0.2568
vn -0.6008 0.7830 -0.1610
vn -0.6008 -0.7830 -0.1610
vn -0.9582 -0.1262 -0.2568
vn -0.7760 0.5955 -0.2079
vn -0.3807 -0.9191 -0.1020
vn -0.4398 -0.7830 -0.4398
vn -0.7015 -0.1262 -0.7015
vn -0.5681 0.5955 -0.5681
vn -0.2787 -0.9191 -0.2787
vn -0.0955 0.9908 -0.0955
vn -0.6565 -0.3715 -0.6565
vn -0.6565 0.3715 -0.6565
vn -0.0955 -0.9908 -0.0955
vn -0.2787 0.9191 -0.2787
vn -0.5681 -0.5955 -0.5681
vn -0.7015 0.1262 -0.7015
vn -0.4398 0.7830 -0.4398
vn -0.1020 0.9191 -0.3807
vn -0.2079 -0.5955 -0.7760
vn -0.2568 0.1262 -0.9582
vn -0.1610 0.7830 -0.6008
vn -0.1610 -0.7830 -0.6008
vn -0.2568 -0.1262 -0.9582
vn -0.2079 0.5955 -0.7760
vn -0.1020 -0.9191 -0.3807
vn -0.0350 0.9908 -0.1304
vn -0.2403 -0.3715 -0.8968
vn -0.2403 0.3715 -0.8968
vn -0.0350 -0.9908 -0.1304
vn 0.9582 -0.1261 0.2568
vn -0.9582 0.1262 0.2568
vn -0.9582 -0.1261 0.2568
usemtl None
s off
f 133//1 16//1 5//1
f 4//2 12//2 13//2
f 130//3 10//3 2//3
f 5//4 17//4 6//4
f 132//5 13//5 14//5
f 131//6 10//6 11//6
f 6//7 18//7 134//7
f 1//8 7//8 8//8
f 132//9 15//9 133//9
f 131//10 12//10 3//10
f 52//11 134//11 18//11
f 130//12 8//12 9//12
f 11//13 21//13 22//13
f 17//14 29//14 18//14
f 8//15 7//15 19//15
f 14//16 26//16 15//16
f 12//17 22//17 23//17
f 52//18 18//18 29//18
f 9//19 19//19 20//19
f 16//20 26//20 27//20
f 12//21 24//21 13//21
f 9//22 21//22 10//22
f 16//23 28//23 17//23
f 14//24 24//24 25//24
f 23//25 35//25 24//25
f 20//26 32//26 21//26
f 27//27 39//27 28//27
f 25//28 35//28 36//28
f 22//29 32//29 33//29
f 28//30 40//30 29//30
f 19//31 7//31 30//31
f 25//32 37//32 26//32
f 22//33 34//33 23//33
f 52//34 29//34 40//34
f 19//35 31//35 20//35
f 26//36 38//36 27//36
f 33//37 45//37 34//37
f 52//38 40//38 51//38
f 30//39 42//39 31//39
f 37//40 49//40 38//40
f 34//41 46//41 35//41
f 31//42 43//42 32//42
f 39//43 49//43 50//43
f 36//44 46//44 47//44
f 32//45 44//45 33//45
f 39//46 51//46 40//46
f 30//47 7//47 41//47
f 37//48 47//48 48//48
f 46//49 59//49 47//49
f 43//50 56//50 44//50
f 50//51 63//51 51//51
f 41//52 7//52 53//52
f 48//53 59//53 60//53
f 45//54 56//54 57//54
f 52//55 51//55 63//55
f 42//56 53//56 54//56
f 49//57 60//57 61//57
f 45//58 58//58 46//58
f 42//59 55//59 43//59
f 50//60 61//60 62//60
f 57//61 69//61 58//61
f 54//62 66//62 55//62
f 62//63 72//63 73//63
f 59//64 69//64 70//64
f 56//65 66//65 67//65
f 62//66 74//66 63//66
f 53//67 7//67 64//67
f 60//68 70//68 71//68
f 56//69 68//69 57//69
f 52//70 63//70 74//70
f 53//71 65//71 54//71
f 61//72 71//72 72//72
f 70//73 82//73 71//73
f 67//74 79//74 68//74
f 52//75 74//75 85//75
f 65//76 75//76 76//76
f 71//77 83//77 72//77
f 69//78 79//78 80//78
f 66//79 76//79 77//79
f 72//80 84//80 73//80
f 69//81 81//81 70//81
f 66//82 78//82 67//82
f 74//83 84//83 85//83
f 64//84 7//84 75//84
f 80//85 92//85 81//85
f 77//86 89//86 78//86
f 84//87 96//87 85//87
f 75//88 7//88 86//88
f 82//89 92//89 93//89
f 78//90 90//90 79//90
f 52//91 85//91 96//91
f 75//92 87//92 76//92
f 82//93 94//93 83//93
f 79//94 91//94 80//94
f 76//95 88//95 77//95
f 84//96 94//96 95//96
f 93//97 105//97 94//97
f 91//98 101//98 102//98
f 87//99 99//99 88//99
f 95//100 105//100 106//100
f 91//101 103//101 92//101
f 88//102 100//102 89//102
f 95//103 107//103 96//103
f 86//104 7//104 97//104
f 93//105 103//105 104//105
f 89//106 101//106 90//106
f 52//107 96//107 107//107
f 86//108 98//108 87//108
f 97//109 7//109 108//109
f 103//110 115//110 104//110
f 100//111 112//111 101//111
f 52//112 107//112 118//112
f 98//113 108//113 109//113
f 104//114 116//114 105//114
f 102//115 112//115 113//115
f 98//116 110//116 99//116
f 106//117 116//117 117//117
f 102//118 114//118 103//118
f 99//119 111//119 100//119
f 106//120 118//120 107//120
f 117//121 127//121 128//121
f 113//122 125//122 114//122
f 110//123 122//123 111//123
f 117//124 129//124 118//124
f 108//125 7//125 119//125
f 114//126 126//126 115//126
f 111//127 123//127 112//127
f 52//128 118//128 129//128
f 108//129 120//129 109//129
f 115//130 127//130 116//130
f 113//131 123//131 124//131
f 109//132 121//132 110//132
f 120//133 1//133 130//133
f 126//134 5//134 127//134
f 123//135 4//135 124//135
f 120//136 2//136 121//136
f 128//137 5//137 6//137
f 124//138 132//138 125//138
f 121//139 131//139 122//139
f 128//140 134//140 129//140
f 119//141 7//141 1//141
f 125//142 133//142 126//142
f 122//143 3//143 123//143
f 52//144 129//144 134//144
f 133//1 15//1 16//1
f 4//2 3//2 12//2
f 130//3 9//3 10//3
f 5//4 16//4 17//4
f 132//5 4//5 13//5
f 131//6 2//6 10//6
f 6//7 17//7 18//7
f 132//9 14//9 15//9
f 131//10 11//10 12//10
f 130//12 1//12 8//12
f 11//13 10//13 21//13
f 17//14 28//14 29//14
f 14//16 25//16 26//16
f 12//17 11//17 22//17
f 9//19 8//19 19//19
f 16//20 15//20 26//20
f 12//21 23//21 24//21
f 9//22 20//22 21//22
f 16//23 27//23 28//23
f 14//24 13//24 24//24
f 23//25 34//25 35//25
f 20//26 31//26 32//26
f 27//27 38//27 39//27
f 25//28 24//28 35//28
f 22//29 21//29 32//29
f 28//30 39//30 40//30
f 25//32 36//32 37//32
f 22//33 33//33 34//33
f 19//35 30//35 31//35
f 26//36 37//36 38//36
f 33//37 44//37 45//37
f 30//39 41//39 42//39
f 37//40 48//40 49//40
f 34//41 45//41 46//41
f 31//42 42//42 43//42
f 39//43 38//43 49//43
f 36//145 35//145 46//145
f 32//45 43//45 44//45
f 39//46 50//46 51//46
f 37//48 36//48 47//48
f 46//49 58//49 59//49
f 43//50 55//50 56//50
f 50//51 62//51 63//51
f 48//53 47//53 59//53
f 45//54 44//54 56//54
f 42//56 41//56 53//56
f 49//57 48//57 60//57
f 45//58 57//58 58//58
f 42//59 54//59 55//59
f 50//60 49//60 61//60
f 57//61 68//61 69//61
f 54//62 65//62 66//62
f 62//63 61//63 72//63
f 59//64 58//64 69//64
f 56//65 55//65 66//65
f 62//66 73//66 74//66
f 60//68 59//68 70//68
f 56//69 67//69 68//69
f 53//71 64//71 65//71
f 61//72 60//72 71//72
f 70//73 81//73 82//73
f 67//74 78//74 79//74
f 65//76 64//76 75//76
f 71//77 82//77 83//77
f 69//78 68//78 79//78
f 66//79 65//79 76//79
f 72//80 83//80 84//80
f 69//81 80//81 81//81
f 66//82 77//82 78//82
f 74//83 73//83 84//83
f 80//85 91//85 92//85
f 77//86 88//86 89//86
f 84//87 95//87 96//87
f 82//89 81//89 92//89
f 78//90 89//90 90//90
f 75//92 86//92 87//92
f 82//93 93//93 94//93
f 79//94 90//94 91//94
f 76//95 87//95 88//95
f 84//96 83//96 94//96
f 93//97 104//97 105//97
f 91//146 90//146 101//146
f 87//99 98//99 99//99
f 95//100 94//100 105//100
f 91//147 102//147 103//147
f 88//102 99//102 100//102
f 95//103 106//103 107//103
f 93//105 92//105 103//105
f 89//106 100//106 101//106
f 86//108 97//108 98//108
f 103//110 114//110 115//110
f 100//111 111//111 112//111
f 98//113 97//113 108//113
f 104//114 115//114 116//114
f 102//115 101//115 112//115
f 98//116 109//116 110//116
f 106//117 105//117 116//117
f 102//118 113//118 114//118
f 99//119 110//119 111//119
f 106//120 117//120 118//120
f 117//121 116//121 127//121
f 113//122 124//122 125//122
f 110//123 121//123 122//123
f 117//124 128//124 129//124
f 114//126 125//126 126//126
f 111//127 122//127 123//127
f 108//129 119//129 120//129
f 115//130 126//130 127//130
f 113//131 112//131 123//131
f 109//132 120//132 121//132
f 120//133 119//133 1//133
f 126//134 133//134 5//134
f 123//135 3//135 4//135
f 120//136 130//136 2//136
f 128//137 127//137 5//137
f 124//138 4//138 132//138
f 121//139 2//139 131//139
f 128//140 6//140 134//140
f 125//142 132//142 133//142
f 122//143 131//143 3//143
